<?xml version="1.0" encoding="UTF-8" standalone="no"?>
<svg
   width="89.961411mm"
   height="89.961411mm"
   viewBox="0 0 340.01137 340.01162"
   fill="none"
   version="1.1"
   id="svg67"
   sodipodi:docname="icon.svg"
   inkscape:version="1.1.1 (c3084ef, 2021-09-22)"
   xmlns:inkscape="http://www.inkscape.org/namespaces/inkscape"
   xmlns:sodipodi="http://sodipodi.sourceforge.net/DTD/sodipodi-0.dtd"
   xmlns="http://www.w3.org/2000/svg"
   xmlns:svg="http://www.w3.org/2000/svg">
  <defs
     id="defs71" />
  <sodipodi:namedview
     id="namedview69"
     pagecolor="#505050"
     bordercolor="#eeeeee"
     borderopacity="1"
     inkscape:pageshadow="0"
     inkscape:pageopacity="0"
     inkscape:pagecheckerboard="true"
     showgrid="false"
     borderlayer="false"
     units="mm"
     showborder="true"
     lock-margins="false"
     fit-margin-top="10"
     fit-margin-left="10"
     fit-margin-right="11.38667"
     fit-margin-bottom="10"
     inkscape:zoom="2.8037736"
     inkscape:cx="143.19987"
     inkscape:cy="215.78062"
     inkscape:window-width="2560"
     inkscape:window-height="1440"
     inkscape:window-x="0"
     inkscape:window-y="0"
     inkscape:window-maximized="0"
     inkscape:current-layer="svg67"
     width="211mm"
     inkscape:showpageshadow="true"
     inkscape:document-units="mm" />
  <path
     d="m 215.42828,209.25928 c -8.385,7.45 -18.857,16.721 -37.845,16.721 h -11.354 c -13.741,0 -26.238,-5 -35.1838,-14.064 -8.7383,-8.856 -13.54851,-20.976 -13.54851,-34.133 v -15.554 c 0,-13.157 4.81021,-25.2778 13.54851,-34.1338 8.9458,-9.0634 21.4428,-14.05601 35.1838,-14.05601 h 11.354 c 19.011,0 29.46,9.26311 37.845,16.71351 8.708,7.6813 16.219,14.3943 36.25,14.3943 3.055,-0.001 6.105,-0.245 9.122,-0.73 l -0.069,-0.177 c -1.2,-2.983 -2.607,-5.878 -4.212,-8.6637 l -13.387,-23.21921 c -6.038,-10.4672 -14.72,-19.159096 -25.176,-25.201996 -10.456,-6.0429 -22.316,-9.224 -34.389,-9.2235 h -26.783 c -12.072,-5e-4 -23.9328,3.1806 -34.3885,9.2235 -10.45581,6.0429 -19.13851,14.734796 -25.175605,25.201996 l -13.3875,23.21921 c -6.0351,10.4687 -9.2122,22.3427 -9.2122,34.4297 0,12.087 3.1771,23.961 9.2122,34.429 l 13.3875,23.219 c 6.037095,10.467 14.719795,19.159 25.175605,25.202 10.4557,6.043 22.3165,9.224 34.3885,9.224 h 26.783 c 12.073,0 23.933,-3.181 34.389,-9.224 10.456,-6.043 19.138,-14.735 25.176,-25.202 l 13.387,-23.181 c 1.605,-2.785 3.012,-5.68 4.212,-8.664 l 0.069,-0.169 c -3.015,-0.501 -6.066,-0.758 -9.122,-0.768 -20.031,0 -27.542,6.675 -36.25,14.394"
     fill="#006bff"
     id="path57" />
  <path
     d="m 177.58428,128.13378 h -11.355 c -20.913,0 -34.6537,14.9545 -34.6537,34.0955 v 15.553 c 0,19.141 13.7407,34.096 34.6537,34.096 h 11.355 c 30.472,0 28.079,-31.108 74.095,-31.108 4.36,-0.005 8.71,0.397 12.996,1.199 1.396,-7.914 1.396,-16.012 0,-23.926 -4.286,0.798 -8.637,1.199 -12.996,1.198 -46.032,0 -43.623,-31.1075 -74.095,-31.1075 z"
     fill="#006bff"
     id="path59" />
  <path
     d="m 291.11328,193.33628 c -7.836,-5.746 -16.873,-9.635 -26.43,-11.375 0,0.084 0,0.153 0,0.23 -0.823,4.586 -2.108,9.077 -3.836,13.403 7.894,1.224 15.384,4.313 21.85,9.01 0,0.061 -0.039,0.138 -0.062,0.207 -8.321,26.977 -26.031,50.07 -49.914,65.086 -23.882,15.015 -52.351,20.956 -80.236,16.743 -27.8855,-4.213 -53.336405,-18.3 -71.729605,-39.702 -18.3933,-21.402 -28.508699,-48.699 -28.508699,-76.932 0,-28.234 10.115399,-55.53131 28.508699,-76.933206 18.3932,-21.4019 43.844105,-35.4887 71.729605,-39.7014 27.885,-4.2128 56.354,1.7281 80.236,16.7433 23.883,15.0152 41.593,38.108596 49.914,65.085206 0,0.0691 0.039,0.1459 0.062,0.2074 -6.465,4.6977 -13.955,7.7837 -21.85,9.0017 1.726,4.333 3.011,8.828 3.836,13.419 -0.004,0.071 -0.004,0.143 0,0.215 9.556,-1.737 18.593,-5.624 26.43,-11.368 7.534,-5.584 6.076,-11.8899 4.933,-15.6228 -9.315,-30.24631 -29.159,-56.143406 -55.926,-72.985506 -26.767,-16.84202 -58.681,-23.51134 -89.942,-18.79598 -31.2618,4.71535 -59.796405,20.50248 -80.418905,44.49258 -20.622399,23.990096 -31.964099,54.590706 -31.964099,86.242706 0,31.651 11.3417,62.252 31.964099,86.242 20.6225,23.99 49.157105,39.777 80.418905,44.492 31.261,4.716 63.175,-1.953 89.942,-18.796 26.767,-16.842 46.611,-42.739 55.926,-72.985 1.143,-3.733 2.601,-10.039 -4.933,-15.623 z"
     fill="#006bff"
     id="path61" />
  <path
     d="m 260.80128,144.40928 c -3.016,0.502 -6.066,0.759 -9.122,0.768 -20.032,0 -27.542,-6.674 -36.242,-14.3936 -8.393,-7.4504 -18.843,-16.72121 -37.854,-16.72121 h -11.354 c -13.748,0 -26.238,5.00021 -35.1833,14.06361 -8.7383,8.856 -13.54861,20.9762 -13.54861,34.1332 v 15.554 c 0,13.157 4.81031,25.278 13.54861,34.134 8.9453,9.063 21.4353,14.056 35.1833,14.056 h 11.354 c 19.011,0 29.461,-9.263 37.854,-16.714 8.7,-7.681 16.21,-14.394 36.242,-14.394 3.055,10e-4 6.105,0.245 9.122,0.73 1.731,-4.325 3.016,-8.816 3.835,-13.403 0.005,-0.077 0.005,-0.154 0,-0.23 -4.286,-0.796 -8.636,-1.195 -12.996,-1.191 -46.031,0 -43.622,31.115 -74.095,31.115 h -11.354 c -20.914,0 -34.6543,-14.962 -34.6543,-34.103 v -15.584 c 0,-19.141 13.7403,-34.0955 34.6543,-34.0955 h 11.354 c 30.473,0 28.079,31.0995 74.095,31.0995 4.36,0.008 8.711,-0.391 12.996,-1.19 0,-0.069 0,-0.139 0,-0.215 -0.824,-4.591 -2.109,-9.086 -3.835,-13.419 z"
     fill="#0ae8f0"
     id="path63" />
  <path
     d="m 260.80128,144.40928 c -3.016,0.502 -6.066,0.759 -9.122,0.768 -20.032,0 -27.542,-6.674 -36.242,-14.3936 -8.393,-7.4504 -18.843,-16.72121 -37.854,-16.72121 h -11.354 c -13.748,0 -26.238,5.00021 -35.1833,14.06361 -8.7383,8.856 -13.54861,20.9762 -13.54861,34.1332 v 15.554 c 0,13.157 4.81031,25.278 13.54861,34.134 8.9453,9.063 21.4353,14.056 35.1833,14.056 h 11.354 c 19.011,0 29.461,-9.263 37.854,-16.714 8.7,-7.681 16.21,-14.394 36.242,-14.394 3.055,10e-4 6.105,0.245 9.122,0.73 1.731,-4.325 3.016,-8.816 3.835,-13.403 0.005,-0.077 0.005,-0.154 0,-0.23 -4.286,-0.796 -8.636,-1.195 -12.996,-1.191 -46.031,0 -43.622,31.115 -74.095,31.115 h -11.354 c -20.914,0 -34.6543,-14.962 -34.6543,-34.103 v -15.584 c 0,-19.141 13.7403,-34.0955 34.6543,-34.0955 h 11.354 c 30.473,0 28.079,31.0995 74.095,31.0995 4.36,0.008 8.711,-0.391 12.996,-1.19 0,-0.069 0,-0.139 0,-0.215 -0.824,-4.591 -2.109,-9.086 -3.835,-13.419 z"
     fill="#0ae8f0"
     id="path65" />
</svg>
