<svg width="210" height="210" fill="none" xmlns="http://www.w3.org/2000/svg"><g clip-path="url(#prefix__clip0_1716:828)"><path d="M99.738 11.068c1.852-4.52 8.252-4.52 10.104 0l22.988 56.094a5.461 5.461 0 004.766 3.382l62.917 3.312c5.06.266 7.06 6.683 3.047 9.776l-48.362 37.284a5.458 5.458 0 00-1.924 5.794l16.042 57.365c1.335 4.774-3.869 8.713-8.101 6.132l-53.582-32.676a5.459 5.459 0 00-5.686 0l-53.582 32.676c-4.232 2.581-9.436-1.358-8.101-6.132l16.042-57.365a5.459 5.459 0 00-1.924-5.794L6.02 83.632c-4.013-3.093-2.013-9.51 3.047-9.776l62.918-3.312a5.46 5.46 0 004.765-3.382l22.988-56.094z" fill="#C3C3C3"/><path d="M105 156.736V7.683c1.992.074 3.948 1.202 4.842 3.385l22.988 56.094a5.461 5.461 0 004.766 3.382l62.917 3.312c5.06.266 7.06 6.683 3.047 9.776l-48.362 37.284a5.458 5.458 0 00-1.924 5.794l16.042 57.365c1.335 4.774-3.869 8.713-8.101 6.132l-53.582-32.676a5.451 5.451 0 00-2.633-.795z" fill="#8A8A8A"/><path d="M101.414 73.08H89.613L63.42 143.64h10.362l27.632-70.56zM114.078 97.174V85.7l31.662 20.079v9.752l-31.662 20.078v-13.768l20.149-11.76-20.149-12.907z" fill="#fff"/></g><defs><clipPath id="prefix__clip0_1716:828"><path fill="#fff" d="M0 0h210v210H0z"/></clipPath></defs></svg>