<svg viewBox="0 0 128 128" xmlns="http://www.w3.org/2000/svg"><g clip-rule="evenodd" fill-rule="evenodd"><path fill="none" d="M0 0h128v128H0z"/><path d="M27.585 64c0-4.157.69-8.143 1.923-11.881L7.938 35.648C3.734 44.183 1.366 53.801 1.366 64c0 10.191 2.366 19.802 6.563 28.332l21.558-16.503A37.86 37.86 0 0127.585 64" fill="#FBBC05"/><path d="M65.457 26.182c9.031 0 17.188 3.2 23.597 8.436L107.698 16C96.337 6.109 81.771 0 65.457 0 40.129 0 18.361 14.484 7.938 35.648l21.569 16.471a37.77 37.77 0 0135.95-25.937" fill="#EA4335"/><path d="M65.457 101.82a37.77 37.77 0 01-35.949-25.937L7.938 92.351c10.423 21.167 32.191 35.651 57.519 35.651 15.632 0 30.557-5.551 41.758-15.951L86.741 96.223c-5.777 3.639-13.052 5.597-21.284 5.597" fill="#34A853"/><path d="M126.63 64c0-3.782-.583-7.855-1.457-11.636h-59.72v24.727h34.376c-1.719 8.431-6.397 14.912-13.092 19.13l20.474 15.828C118.977 101.129 126.63 84.861 126.63 64" fill="#4285F4"/></g></svg>